<?xml version="1.0" encoding="UTF-8"?>
<!DOCTYPE svg PUBLIC "-//W3C//DTD SVG 1.1//EN" "http://www.w3.org/Graphics/SVG/1.1/DTD/svg11.dtd">
<svg xmlns="http://www.w3.org/2000/svg" version="1.1" width="500px" height="500px" style="shape-rendering:geometricPrecision; text-rendering:geometricPrecision; image-rendering:optimizeQuality; fill-rule:evenodd; clip-rule:evenodd" xmlns:xlink="http://www.w3.org/1999/xlink">
<g><path style="opacity:0.004" fill="#fefffe" d="M 452.5,5.5 C 453.833,6.16667 453.833,6.16667 452.5,5.5 Z"/></g>
<g><path style="opacity:0.004" fill="#fefffe" d="M 190.5,21.5 C 191.833,22.1667 191.833,22.1667 190.5,21.5 Z"/></g>
<g><path style="opacity:0.004" fill="#fefffe" d="M 226.5,26.5 C 227.833,27.1667 227.833,27.1667 226.5,26.5 Z"/></g>
<g><path style="opacity:0.004" fill="#fefffe" d="M 283.5,40.5 C 284.833,41.1667 284.833,41.1667 283.5,40.5 Z"/></g>
<g><path style="opacity:0.004" fill="#fefffe" d="M 381.5,43.5 C 382.833,44.1667 382.833,44.1667 381.5,43.5 Z"/></g>
<g><path style="opacity:0.004" fill="#fefffe" d="M 377.5,47.5 C 378.833,48.1667 378.833,48.1667 377.5,47.5 Z"/></g>
<g><path style="opacity:0.004" fill="#fefffe" d="M 96.5,52.5 C 97.8333,53.1667 97.8333,53.1667 96.5,52.5 Z"/></g>
<g><path style="opacity:0.004" fill="#fefffe" d="M 428.5,54.5 C 429.833,55.1667 429.833,55.1667 428.5,54.5 Z"/></g>
<g><path style="opacity:0.004" fill="#fefffe" d="M 380.5,57.5 C 381.833,58.1667 381.833,58.1667 380.5,57.5 Z"/></g>
<g><path style="opacity:0.004" fill="#fefffe" d="M 391.5,63.5 C 392.833,64.1667 392.833,64.1667 391.5,63.5 Z"/></g>
<g><path style="opacity:0.004" fill="#fefffe" d="M 437.5,64.5 C 438.833,65.1667 438.833,65.1667 437.5,64.5 Z"/></g>
<g><path style="opacity:0.992" fill="#dc6066" d="M 165.5,68.5 C 157.5,69.8333 149.5,69.8333 141.5,68.5C 149.507,67.205 157.507,67.205 165.5,68.5 Z"/></g>
<g><path style="opacity:1" fill="#ed6e6e" d="M 141.5,68.5 C 149.5,69.8333 157.5,69.8333 165.5,68.5C 190.858,71.3494 213.191,81.0161 232.5,97.5C 232.539,98.5832 232.873,99.5832 233.5,100.5C 232.038,100.065 231.038,100.898 230.5,103C 230.989,104.138 231.322,105.305 231.5,106.5C 229.031,113.239 226.364,119.906 223.5,126.5C 222.094,126.973 221.427,127.973 221.5,129.5C 221.598,131.553 220.931,133.22 219.5,134.5C 218.21,133.942 217.377,132.942 217,131.5C 216.9,134.437 216.067,137.104 214.5,139.5C 215.428,140.768 215.595,142.101 215,143.5C 213.989,142.663 212.822,142.33 211.5,142.5C 211.628,136.547 210.961,136.213 209.5,141.5C 206.043,141.667 205.71,142.667 208.5,144.5C 209.167,144.167 209.833,143.833 210.5,143.5C 211.321,146.446 211.321,149.446 210.5,152.5C 208.876,152.36 207.71,153.027 207,154.5C 206.505,157.531 206.671,160.531 207.5,163.5C 207.167,164.167 206.833,164.833 206.5,165.5C 205.153,166.171 203.986,166.171 203,165.5C 202.759,170.705 202.259,175.872 201.5,181C 201.892,182.011 202.559,182.511 203.5,182.5C 202.572,183.768 202.405,185.101 203,186.5C 203.417,185.244 204.25,184.577 205.5,184.5C 203.709,187.064 204.376,188.731 207.5,189.5C 208.406,191.386 209.406,193.22 210.5,195C 211.549,195.492 212.549,195.326 213.5,194.5C 215.662,196.02 217.995,197.02 220.5,197.5C 220.281,198.675 220.614,199.675 221.5,200.5C 222.726,199.637 224.06,199.637 225.5,200.5C 237.891,208.689 249.891,217.356 261.5,226.5C 261.829,229.032 262.995,230.032 265,229.5C 265.5,230 266,230.5 266.5,231C 261.692,231.766 260.692,233.932 263.5,237.5C 247.877,256.294 232.044,274.961 216,293.5C 212.853,298.749 212.686,304.083 215.5,309.5C 214.922,311.443 213.922,311.777 212.5,310.5C 211.167,311.833 211.167,313.167 212.5,314.5C 213.451,313.674 214.451,313.508 215.5,314C 219.746,317.894 223.413,321.561 226.5,325C 225.483,326.049 225.316,327.216 226,328.5C 227.5,330 229,331.5 230.5,333C 231.928,333.579 233.262,333.412 234.5,332.5C 237.379,336.041 241.046,338.374 245.5,339.5C 245.833,341.833 247.167,343.167 249.5,343.5C 250.551,344.222 251.218,345.222 251.5,346.5C 251.5,349.167 251.5,351.833 251.5,354.5C 248.546,368.604 245.213,382.604 241.5,396.5C 240.778,396.918 240.278,397.584 240,398.5C 239.667,397.833 239.333,397.167 239,396.5C 239,398.5 239,400.5 239,402.5C 238.085,401.672 237.419,400.672 237,399.5C 236.571,401.669 237.071,403.669 238.5,405.5C 237.902,406.795 237.402,408.128 237,409.5C 235.577,407.655 234.41,405.655 233.5,403.5C 232.749,404.376 232.249,405.376 232,406.5C 231.922,408.657 231.755,410.657 231.5,412.5C 231.846,413.696 232.346,413.696 233,412.5C 233.333,411.167 233.667,409.833 234,408.5C 234.626,411.863 234.959,415.196 235,418.5C 232.266,415.707 231.266,416.041 232,419.5C 230.693,418.228 229.193,417.228 227.5,416.5C 228.263,415.281 229.263,414.281 230.5,413.5C 230.023,412.069 229.357,410.736 228.5,409.5C 226.586,412.184 224.42,414.518 222,416.5C 220.775,416.138 219.609,415.638 218.5,415C 217.167,414.333 217.167,413.667 218.5,413C 216.793,412.805 215.126,412.805 213.5,413C 213.167,412 212.833,411 212.5,410C 210.267,408.171 207.933,407.671 205.5,408.5C 203.596,408.262 202.262,407.262 201.5,405.5C 200.466,403.447 198.966,401.78 197,400.5C 196.798,398.744 196.298,397.078 195.5,395.5C 190.599,394.895 187.599,392.228 186.5,387.5C 185.5,386.167 184.5,386.167 183.5,387.5C 184.855,388.675 184.688,389.675 183,390.5C 180.078,385.741 175.911,382.741 170.5,381.5C 146.87,364.837 124.537,346.504 103.5,326.5C 97.4626,320.465 91.796,314.131 86.5,307.5C 85.8288,306.153 85.8288,304.986 86.5,304C 84.7923,302.49 83.1256,300.99 81.5,299.5C 81.7093,298.914 82.0426,298.414 82.5,298C 81.1667,297.333 79.8333,296.667 78.5,296C 80.4386,295.092 81.4386,293.592 81.5,291.5C 82.8734,291.657 84.2068,291.49 85.5,291C 82.2662,287.261 79.4329,288.095 77,293.5C 75.2398,290.311 73.7398,286.977 72.5,283.5C 71.914,283.709 71.414,284.043 71,284.5C 70.7104,282.956 70.0437,281.623 69,280.5C 68.4054,279.101 68.5721,277.768 69.5,276.5C 68.316,274.954 67.316,273.287 66.5,271.5C 65.2638,272.246 63.9305,272.579 62.5,272.5C 60.0764,269.992 58.4097,266.992 57.5,263.5C 57.7711,261.179 57.1045,259.179 55.5,257.5C 56.6394,255.604 55.9728,254.604 53.5,254.5C 40.7958,224.865 37.4625,194.198 43.5,162.5C 44.9238,160.485 45.5905,158.152 45.5,155.5C 48.2464,143.567 52.9131,132.567 59.5,122.5C 60.9063,122.027 61.573,121.027 61.5,119.5C 64.0745,114.591 67.4078,110.258 71.5,106.5C 75.1667,103.5 78.5,100.167 81.5,96.5C 98.1173,80.1946 118.117,70.8613 141.5,68.5 Z"/></g>
<g><path style="opacity:1" fill="#ed6e6e" d="M 359.5,68.5 C 363.291,69.6433 366.957,70.9767 370.5,72.5C 371.167,72.1667 371.833,71.8333 372.5,71.5C 372.833,72.1667 373.167,72.8333 373.5,73.5C 374.417,72.8728 375.417,72.5394 376.5,72.5C 396.929,78.3043 414.096,89.3043 428,105.5C 456.454,141.512 465.454,182.178 455,227.5C 449.142,250.55 439.476,271.883 426,291.5C 409.987,311.952 392.153,330.786 372.5,348C 344.861,370.15 316.861,391.817 288.5,413C 282.6,416.449 276.6,419.616 270.5,422.5C 269.5,422.5 268.5,422.5 267.5,422.5C 267.5,420.833 267.5,419.167 267.5,417.5C 269.49,408.521 271.49,399.521 273.5,390.5C 274.931,389.22 275.598,387.553 275.5,385.5C 278.211,371.923 281.545,358.59 285.5,345.5C 286.458,345.953 287.292,346.619 288,347.5C 288.887,343.587 288.387,339.92 286.5,336.5C 287.043,335.136 287.21,333.803 287,332.5C 284.438,332.707 281.938,331.874 279.5,330C 280.623,328.956 281.956,328.29 283.5,328C 282.069,327.535 280.903,326.701 280,325.5C 279.439,326.022 278.772,326.355 278,326.5C 276.629,325.419 275.129,324.585 273.5,324C 273.833,323.667 274.167,323.333 274.5,323C 273.495,321.493 272.162,320.327 270.5,319.5C 270.709,318.914 271.043,318.414 271.5,318C 267.887,315.244 263.887,313.077 259.5,311.5C 256.531,308.367 253.365,305.367 250,302.5C 249.587,299.404 250.754,297.071 253.5,295.5C 256.388,295.78 257.888,294.447 258,291.5C 260.593,289.451 263.093,287.285 265.5,285C 264.829,284.014 264.829,282.847 265.5,281.5C 279.24,265.931 292.407,249.931 305,233.5C 306.652,227.036 305.152,221.536 300.5,217C 279.783,202.591 259.117,188.091 238.5,173.5C 237.359,171.579 237.192,169.579 238,167.5C 239.759,163.356 241.592,159.356 243.5,155.5C 244.674,154.486 245.34,153.153 245.5,151.5C 249.591,140.994 253.924,130.661 258.5,120.5C 260.818,118.815 261.818,116.481 261.5,113.5C 264.017,104.285 268.684,96.4513 275.5,90C 297.321,75.0016 321.488,67.1682 348,66.5C 351.683,67.864 355.516,68.5307 359.5,68.5 Z"/></g>
<g><path style="opacity:1" fill="#eb8a87" d="M 359.5,68.5 C 365.564,68.6429 371.231,69.9763 376.5,72.5C 375.417,72.5394 374.417,72.8728 373.5,73.5C 373.167,72.8333 372.833,72.1667 372.5,71.5C 371.833,71.8333 371.167,72.1667 370.5,72.5C 366.957,70.9767 363.291,69.6433 359.5,68.5 Z"/></g>
<g><path style="opacity:0.004" fill="#fefffe" d="M 497.5,79.5 C 498.833,80.1667 498.833,80.1667 497.5,79.5 Z"/></g>
<g><path style="opacity:0.004" fill="#fefffe" d="M 15.5,84.5 C 16.8333,85.1667 16.8333,85.1667 15.5,84.5 Z"/></g>
<g><path style="opacity:0.667" fill="#e8aaa7" d="M 81.5,96.5 C 78.5,100.167 75.1667,103.5 71.5,106.5C 73.8333,102.167 77.1667,98.8333 81.5,96.5 Z"/></g>
<g><path style="opacity:1" fill="#ea9290" d="M 232.5,97.5 C 233.88,97.9623 234.547,98.9623 234.5,100.5C 233.999,102.836 232.999,104.836 231.5,106.5C 231.322,105.305 230.989,104.138 230.5,103C 231.038,100.898 232.038,100.065 233.5,100.5C 232.873,99.5832 232.539,98.5832 232.5,97.5 Z"/></g>
<g><path style="opacity:0.898" fill="#f4aba8" d="M 261.5,113.5 C 261.818,116.481 260.818,118.815 258.5,120.5C 259.088,117.937 260.088,115.604 261.5,113.5 Z"/></g>
<g><path style="opacity:0.31" fill="#f8bcbe" d="M 61.5,119.5 C 61.573,121.027 60.9063,122.027 59.5,122.5C 59.427,120.973 60.0937,119.973 61.5,119.5 Z"/></g>
<g><path style="opacity:0.271" fill="#f7c1c5" d="M 223.5,126.5 C 223.573,128.027 222.906,129.027 221.5,129.5C 221.427,127.973 222.094,126.973 223.5,126.5 Z"/></g>
<g><path style="opacity:0.004" fill="#fefffe" d="M 25.5,129.5 C 26.8333,130.167 26.8333,130.167 25.5,129.5 Z"/></g>
<g><path style="opacity:0.004" fill="#fefffe" d="M 27.5,134.5 C 28.8333,135.167 28.8333,135.167 27.5,134.5 Z"/></g>
<g><path style="opacity:0.004" fill="#fefffe" d="M 473.5,135.5 C 474.833,136.167 474.833,136.167 473.5,135.5 Z"/></g>
<g><path style="opacity:1" fill="#ea7a78" d="M 219.5,134.5 C 215.719,144.378 211.719,154.045 207.5,163.5C 206.671,160.531 206.505,157.531 207,154.5C 207.71,153.027 208.876,152.36 210.5,152.5C 211.321,149.446 211.321,146.446 210.5,143.5C 209.833,143.833 209.167,144.167 208.5,144.5C 205.71,142.667 206.043,141.667 209.5,141.5C 210.961,136.213 211.628,136.547 211.5,142.5C 212.822,142.33 213.989,142.663 215,143.5C 215.595,142.101 215.428,140.768 214.5,139.5C 216.067,137.104 216.9,134.437 217,131.5C 217.377,132.942 218.21,133.942 219.5,134.5 Z"/></g>
<g><path style="opacity:0.031" fill="#fbd2ce" d="M 245.5,151.5 C 245.34,153.153 244.674,154.486 243.5,155.5C 243.229,153.62 243.896,152.287 245.5,151.5 Z"/></g>
<g><path style="opacity:0.004" fill="#fefffe" d="M 478.5,160.5 C 479.833,161.167 479.833,161.167 478.5,160.5 Z"/></g>
<g><path style="opacity:0.459" fill="#f3b3b3" d="M 45.5,155.5 C 45.5905,158.152 44.9238,160.485 43.5,162.5C 43.4095,159.848 44.0762,157.515 45.5,155.5 Z"/></g>
<g><path style="opacity:1" fill="#ee8d8b" d="M 206.5,165.5 C 203.097,171.709 202.763,178.042 205.5,184.5C 204.25,184.577 203.417,185.244 203,186.5C 202.405,185.101 202.572,183.768 203.5,182.5C 202.559,182.511 201.892,182.011 201.5,181C 202.259,175.872 202.759,170.705 203,165.5C 203.986,166.171 205.153,166.171 206.5,165.5 Z"/></g>
<g><path style="opacity:1" fill="#e57978" d="M 205.5,184.5 C 211.854,190.183 218.52,195.516 225.5,200.5C 224.06,199.637 222.726,199.637 221.5,200.5C 220.614,199.675 220.281,198.675 220.5,197.5C 217.995,197.02 215.662,196.02 213.5,194.5C 212.549,195.326 211.549,195.492 210.5,195C 209.406,193.22 208.406,191.386 207.5,189.5C 204.376,188.731 203.709,187.064 205.5,184.5 Z"/></g>
<g><path style="opacity:0.004" fill="#fefffe" d="M 0.5,194.5 C 1.83333,195.167 1.83333,195.167 0.5,194.5 Z"/></g>
<g><path style="opacity:0.004" fill="#fefffe" d="M 258.5,209.5 C 259.833,210.167 259.833,210.167 258.5,209.5 Z"/></g>
<g><path style="opacity:0.004" fill="#fefffe" d="M 8.5,214.5 C 9.83333,215.167 9.83333,215.167 8.5,214.5 Z"/></g>
<g><path style="opacity:0.004" fill="#fefffe" d="M 16.5,223.5 C 17.8333,224.167 17.8333,224.167 16.5,223.5 Z"/></g>
<g><path style="opacity:1" fill="#e98382" d="M 261.5,226.5 C 269.887,228.912 270.554,232.578 263.5,237.5C 260.692,233.932 261.692,231.766 266.5,231C 266,230.5 265.5,230 265,229.5C 262.995,230.032 261.829,229.032 261.5,226.5 Z"/></g>
<g><path style="opacity:0.004" fill="#fefffe" d="M 487.5,246.5 C 488.833,247.167 488.833,247.167 487.5,246.5 Z"/></g>
<g><path style="opacity:1" fill="#ea9593" d="M 53.5,254.5 C 55.9728,254.604 56.6394,255.604 55.5,257.5C 57.1045,259.179 57.7711,261.179 57.5,263.5C 55.4082,260.912 54.0749,257.912 53.5,254.5 Z"/></g>
<g><path style="opacity:0.004" fill="#fefffe" d="M 455.5,269.5 C 456.833,270.167 456.833,270.167 455.5,269.5 Z"/></g>
<g><path style="opacity:1" fill="#e77676" d="M 86.5,307.5 C 76.9451,296.937 68.9451,285.27 62.5,272.5C 63.9305,272.579 65.2638,272.246 66.5,271.5C 67.316,273.287 68.316,274.954 69.5,276.5C 68.5721,277.768 68.4054,279.101 69,280.5C 70.0437,281.623 70.7104,282.956 71,284.5C 71.414,284.043 71.914,283.709 72.5,283.5C 73.7398,286.977 75.2398,290.311 77,293.5C 79.4329,288.095 82.2662,287.261 85.5,291C 84.2068,291.49 82.8734,291.657 81.5,291.5C 81.4386,293.592 80.4386,295.092 78.5,296C 79.8333,296.667 81.1667,297.333 82.5,298C 82.0426,298.414 81.7093,298.914 81.5,299.5C 83.1256,300.99 84.7923,302.49 86.5,304C 85.8288,304.986 85.8288,306.153 86.5,307.5 Z"/></g>
<g><path style="opacity:0.925" fill="#e68383" d="M 265.5,281.5 C 264.829,282.847 264.829,284.014 265.5,285C 263.093,287.285 260.593,289.451 258,291.5C 257.888,294.447 256.388,295.78 253.5,295.5C 257.155,290.514 261.155,285.847 265.5,281.5 Z"/></g>
<g><path style="opacity:0.004" fill="#fefffe" d="M 34.5,312.5 C 35.8333,313.167 35.8333,313.167 34.5,312.5 Z"/></g>
<g><path style="opacity:0.004" fill="#fefffe" d="M 37.5,313.5 C 38.8333,314.167 38.8333,314.167 37.5,313.5 Z"/></g>
<g><path style="opacity:0.004" fill="#fefffe" d="M 53.5,316.5 C 54.8333,317.167 54.8333,317.167 53.5,316.5 Z"/></g>
<g><path style="opacity:1" fill="#e67776" d="M 215.5,309.5 C 223.167,316.5 230.5,323.833 237.5,331.5C 237.631,332.239 237.464,332.906 237,333.5C 236.329,332.748 235.496,332.414 234.5,332.5C 233.262,333.412 231.928,333.579 230.5,333C 229,331.5 227.5,330 226,328.5C 225.316,327.216 225.483,326.049 226.5,325C 223.413,321.561 219.746,317.894 215.5,314C 214.451,313.508 213.451,313.674 212.5,314.5C 211.167,313.167 211.167,311.833 212.5,310.5C 213.922,311.777 214.922,311.443 215.5,309.5 Z"/></g>
<g><path style="opacity:1" fill="#e77775" d="M 259.5,311.5 C 263.887,313.077 267.887,315.244 271.5,318C 271.043,318.414 270.709,318.914 270.5,319.5C 272.162,320.327 273.495,321.493 274.5,323C 274.167,323.333 273.833,323.667 273.5,324C 275.129,324.585 276.629,325.419 278,326.5C 278.772,326.355 279.439,326.022 280,325.5C 280.903,326.701 282.069,327.535 283.5,328C 281.956,328.29 280.623,328.956 279.5,330C 281.938,331.874 284.438,332.707 287,332.5C 287.21,333.803 287.043,335.136 286.5,336.5C 288.387,339.92 288.887,343.587 288,347.5C 287.292,346.619 286.458,345.953 285.5,345.5C 285.295,342.012 284.461,338.679 283,335.5C 275.299,327.3 267.466,319.3 259.5,311.5 Z"/></g>
<g><path style="opacity:0.004" fill="#fefffe" d="M 103.5,326.5 C 102.833,327.167 102.833,327.167 103.5,326.5 Z"/></g>
<g><path style="opacity:0.004" fill="#fefffe" d="M 16.5,327.5 C 17.8333,328.167 17.8333,328.167 16.5,327.5 Z"/></g>
<g><path style="opacity:0.004" fill="#fefffe" d="M 486.5,333.5 C 487.833,334.167 487.833,334.167 486.5,333.5 Z"/></g>
<g><path style="opacity:1" fill="#e78e8c" d="M 237.5,331.5 C 240.5,333.833 243.167,336.5 245.5,339.5C 241.046,338.374 237.379,336.041 234.5,332.5C 235.496,332.414 236.329,332.748 237,333.5C 237.464,332.906 237.631,332.239 237.5,331.5 Z"/></g>
<g><path style="opacity:0.004" fill="#fefffe" d="M 77.5,339.5 C 78.8333,340.167 78.8333,340.167 77.5,339.5 Z"/></g>
<g><path style="opacity:0.443" fill="#efc8ca" d="M 245.5,339.5 C 247.167,340.5 248.5,341.833 249.5,343.5C 247.167,343.167 245.833,341.833 245.5,339.5 Z"/></g>
<g><path style="opacity:0.004" fill="#fefffe" d="M 86.5,346.5 C 87.8333,347.167 87.8333,347.167 86.5,346.5 Z"/></g>
<g><path style="opacity:0.988" fill="#df8c8e" d="M 251.5,346.5 C 252.649,346.791 253.316,347.624 253.5,349C 253.299,351.111 252.633,352.945 251.5,354.5C 251.5,351.833 251.5,349.167 251.5,346.5 Z"/></g>
<g><path style="opacity:0.004" fill="#fefffe" d="M 42.5,364.5 C 43.8333,365.167 43.8333,365.167 42.5,364.5 Z"/></g>
<g><path style="opacity:0.004" fill="#fefffe" d="M 483.5,371.5 C 484.833,372.167 484.833,372.167 483.5,371.5 Z"/></g>
<g><path style="opacity:0.004" fill="#fefffe" d="M 254.5,373.5 C 255.833,374.167 255.833,374.167 254.5,373.5 Z"/></g>
<g><path style="opacity:1" fill="#e87676" d="M 170.5,381.5 C 175.911,382.741 180.078,385.741 183,390.5C 184.688,389.675 184.855,388.675 183.5,387.5C 184.5,386.167 185.5,386.167 186.5,387.5C 187.599,392.228 190.599,394.895 195.5,395.5C 196.298,397.078 196.798,398.744 197,400.5C 198.966,401.78 200.466,403.447 201.5,405.5C 190.59,398.258 180.257,390.258 170.5,381.5 Z"/></g>
<g><path style="opacity:0.059" fill="#fed4d9" d="M 275.5,385.5 C 275.598,387.553 274.931,389.22 273.5,390.5C 273.402,388.447 274.069,386.78 275.5,385.5 Z"/></g>
<g><path style="opacity:0.004" fill="#fefffe" d="M 66.5,391.5 C 67.8333,392.167 67.8333,392.167 66.5,391.5 Z"/></g>
<g><path style="opacity:0.004" fill="#fefffe" d="M 137.5,395.5 C 138.833,396.167 138.833,396.167 137.5,395.5 Z"/></g>
<g><path style="opacity:0.004" fill="#fefffe" d="M 57.5,398.5 C 58.8333,399.167 58.8333,399.167 57.5,398.5 Z"/></g>
<g><path style="opacity:0.004" fill="#fefffe" d="M 352.5,401.5 C 353.833,402.167 353.833,402.167 352.5,401.5 Z"/></g>
<g><path style="opacity:0.004" fill="#fefffe" d="M 181.5,403.5 C 182.833,404.167 182.833,404.167 181.5,403.5 Z"/></g>
<g><path style="opacity:0.004" fill="#fefffe" d="M 18.5,406.5 C 19.8333,407.167 19.8333,407.167 18.5,406.5 Z"/></g>
<g><path style="opacity:0.004" fill="#fefffe" d="M 353.5,409.5 C 354.833,410.167 354.833,410.167 353.5,409.5 Z"/></g>
<g><path style="opacity:0.004" fill="#fefffe" d="M 117.5,412.5 C 118.833,413.167 118.833,413.167 117.5,412.5 Z"/></g>
<g><path style="opacity:0.004" fill="#fefffe" d="M 367.5,412.5 C 368.833,413.167 368.833,413.167 367.5,412.5 Z"/></g>
<g><path style="opacity:1" fill="#e97574" d="M 241.5,396.5 C 239.738,406.234 237.071,415.567 233.5,424.5C 223.158,420.671 213.825,415.337 205.5,408.5C 207.933,407.671 210.267,408.171 212.5,410C 212.833,411 213.167,412 213.5,413C 215.126,412.805 216.793,412.805 218.5,413C 217.167,413.667 217.167,414.333 218.5,415C 219.609,415.638 220.775,416.138 222,416.5C 224.42,414.518 226.586,412.184 228.5,409.5C 229.357,410.736 230.023,412.069 230.5,413.5C 229.263,414.281 228.263,415.281 227.5,416.5C 229.193,417.228 230.693,418.228 232,419.5C 231.266,416.041 232.266,415.707 235,418.5C 234.959,415.196 234.626,411.863 234,408.5C 233.667,409.833 233.333,411.167 233,412.5C 232.346,413.696 231.846,413.696 231.5,412.5C 231.755,410.657 231.922,408.657 232,406.5C 232.249,405.376 232.749,404.376 233.5,403.5C 234.41,405.655 235.577,407.655 237,409.5C 237.402,408.128 237.902,406.795 238.5,405.5C 237.071,403.669 236.571,401.669 237,399.5C 237.419,400.672 238.085,401.672 239,402.5C 239,400.5 239,398.5 239,396.5C 239.333,397.167 239.667,397.833 240,398.5C 240.278,397.584 240.778,396.918 241.5,396.5 Z"/></g>
<g><path style="opacity:0.004" fill="#fefffe" d="M 38.5,419.5 C 39.8333,420.167 39.8333,420.167 38.5,419.5 Z"/></g>
<g><path style="opacity:0.004" fill="#fefffe" d="M 17.5,420.5 C 18.8333,421.167 18.8333,421.167 17.5,420.5 Z"/></g>
<g><path style="opacity:0.984" fill="#e6a0a8" d="M 267.5,417.5 C 267.5,419.167 267.5,420.833 267.5,422.5C 268.5,422.5 269.5,422.5 270.5,422.5C 269.359,423.339 268.026,424.006 266.5,424.5C 265.394,421.934 265.727,419.6 267.5,417.5 Z"/></g>
<g><path style="opacity:0.004" fill="#fefffe" d="M 175.5,424.5 C 176.833,425.167 176.833,425.167 175.5,424.5 Z"/></g>
<g><path style="opacity:0.004" fill="#fefffe" d="M 445.5,427.5 C 446.833,428.167 446.833,428.167 445.5,427.5 Z"/></g>
<g><path style="opacity:0.004" fill="#fefffe" d="M 131.5,430.5 C 132.833,431.167 132.833,431.167 131.5,430.5 Z"/></g>
<g><path style="opacity:0.004" fill="#fefffe" d="M 375.5,436.5 C 376.833,437.167 376.833,437.167 375.5,436.5 Z"/></g>
<g><path style="opacity:0.004" fill="#fefffe" d="M 310.5,441.5 C 311.833,442.167 311.833,442.167 310.5,441.5 Z"/></g>
<g><path style="opacity:0.004" fill="#fefffe" d="M 242.5,451.5 C 243.833,452.167 243.833,452.167 242.5,451.5 Z"/></g>
<g><path style="opacity:0.004" fill="#fefffe" d="M 406.5,452.5 C 407.833,453.167 407.833,453.167 406.5,452.5 Z"/></g>
<g><path style="opacity:0.004" fill="#fefffe" d="M 370.5,457.5 C 371.833,458.167 371.833,458.167 370.5,457.5 Z"/></g>
<g><path style="opacity:0.004" fill="#fefffe" d="M 173.5,460.5 C 174.833,461.167 174.833,461.167 173.5,460.5 Z"/></g>
<g><path style="opacity:0.004" fill="#fefffe" d="M 315.5,464.5 C 316.833,465.167 316.833,465.167 315.5,464.5 Z"/></g>
<g><path style="opacity:0.004" fill="#fefffe" d="M 309.5,466.5 C 310.833,467.167 310.833,467.167 309.5,466.5 Z"/></g>
<g><path style="opacity:0.004" fill="#fefffe" d="M 403.5,482.5 C 404.833,483.167 404.833,483.167 403.5,482.5 Z"/></g>
<g><path style="opacity:0.004" fill="#fefffe" d="M 85.5,483.5 C 86.8333,484.167 86.8333,484.167 85.5,483.5 Z"/></g>
<g><path style="opacity:0.004" fill="#fefffe" d="M 451.5,490.5 C 452.833,491.167 452.833,491.167 451.5,490.5 Z"/></g>
<g><path style="opacity:0.004" fill="#fefffe" d="M 475.5,494.5 C 476.833,495.167 476.833,495.167 475.5,494.5 Z"/></g>
</svg>
