<?xml version="1.0" encoding="UTF-8"?>
<!DOCTYPE svg PUBLIC "-//W3C//DTD SVG 1.1//EN" "http://www.w3.org/Graphics/SVG/1.1/DTD/svg11.dtd">
<svg xmlns="http://www.w3.org/2000/svg" version="1.1" width="800px" height="800px" style="shape-rendering:geometricPrecision; text-rendering:geometricPrecision; image-rendering:optimizeQuality; fill-rule:evenodd; clip-rule:evenodd" xmlns:xlink="http://www.w3.org/1999/xlink">
<g><path style="opacity:1" fill="#ec3b3c" d="M 233.5,108.5 C 280.046,106.798 322.046,119.631 359.5,147C 373.571,157.565 386.904,169.065 399.5,181.5C 427.341,152.173 460.341,130.673 498.5,117C 579.432,95.8651 645.265,118.365 696,184.5C 728.932,234.152 740.265,288.486 730,347.5C 721.617,397.253 701.617,441.586 670,480.5C 645.5,510.333 618.333,537.5 588.5,562C 549.529,593.15 510.196,623.816 470.5,654C 453.264,666.784 434.264,676.117 413.5,682C 399.136,684.615 385.136,683.282 371.5,678C 348.689,667.769 327.689,654.769 308.5,639C 277.833,615 247.167,591 216.5,567C 176.804,535.641 142.304,499.474 113,458.5C 70.1331,394.164 56.7998,324.164 73,248.5C 90.3116,186.857 128.478,143.691 187.5,119C 202.578,113.755 217.911,110.255 233.5,108.5 Z"/></g>
</svg>
