<?xml version="1.0" encoding="UTF-8"?>
<!DOCTYPE svg PUBLIC "-//W3C//DTD SVG 1.1//EN" "http://www.w3.org/Graphics/SVG/1.1/DTD/svg11.dtd">
<svg xmlns="http://www.w3.org/2000/svg" version="1.1" width="500px" height="500px" style="shape-rendering:geometricPrecision; text-rendering:geometricPrecision; image-rendering:optimizeQuality; fill-rule:evenodd; clip-rule:evenodd" xmlns:xlink="http://www.w3.org/1999/xlink">
<g><path style="opacity:0.004" fill="#fefffe" d="M 85.5,0.5 C 86.8333,1.16667 86.8333,1.16667 85.5,0.5 Z"/></g>
<g><path style="opacity:0.004" fill="#fefffe" d="M 307.5,8.5 C 308.833,9.16667 308.833,9.16667 307.5,8.5 Z"/></g>
<g><path style="opacity:0.004" fill="#fefffe" d="M 54.5,12.5 C 55.8333,13.1667 55.8333,13.1667 54.5,12.5 Z"/></g>
<g><path style="opacity:0.004" fill="#fefffe" d="M 361.5,13.5 C 362.833,14.1667 362.833,14.1667 361.5,13.5 Z"/></g>
<g><path style="opacity:0.004" fill="#fefffe" d="M 115.5,18.5 C 116.833,19.1667 116.833,19.1667 115.5,18.5 Z"/></g>
<g><path style="opacity:0.004" fill="#fefffe" d="M 165.5,28.5 C 166.833,29.1667 166.833,29.1667 165.5,28.5 Z"/></g>
<g><path style="opacity:0.004" fill="#fefffe" d="M 98.5,33.5 C 99.8333,34.1667 99.8333,34.1667 98.5,33.5 Z"/></g>
<g><path style="opacity:0.004" fill="#fefffe" d="M 419.5,37.5 C 420.833,38.1667 420.833,38.1667 419.5,37.5 Z"/></g>
<g><path style="opacity:0.004" fill="#fefffe" d="M 413.5,51.5 C 414.833,52.1667 414.833,52.1667 413.5,51.5 Z"/></g>
<g><path style="opacity:0.004" fill="#fefffe" d="M 380.5,56.5 C 381.833,57.1667 381.833,57.1667 380.5,56.5 Z"/></g>
<g><path style="opacity:0.004" fill="#fefffe" d="M 84.5,57.5 C 85.8333,58.1667 85.8333,58.1667 84.5,57.5 Z"/></g>
<g><path style="opacity:0.004" fill="#fefffe" d="M 392.5,61.5 C 393.833,62.1667 393.833,62.1667 392.5,61.5 Z"/></g>
<g><path style="opacity:0.004" fill="#fefffe" d="M 482.5,61.5 C 483.833,62.1667 483.833,62.1667 482.5,61.5 Z"/></g>
<g><path style="opacity:0.004" fill="#fefffe" d="M 38.5,62.5 C 39.8333,63.1667 39.8333,63.1667 38.5,62.5 Z"/></g>
<g><path style="opacity:0.776" fill="#e99694" d="M 328.5,68.5 C 327.5,69.1667 326.5,69.8333 325.5,70.5C 323.833,70.5 322.167,70.5 320.5,70.5C 322.838,68.9605 325.505,68.2938 328.5,68.5 Z"/></g>
<g><path style="opacity:1" fill="#dd5150" d="M 353.5,68.5 C 343.994,68.3431 334.661,69.0098 325.5,70.5C 326.5,69.8333 327.5,69.1667 328.5,68.5C 336.995,67.4614 345.328,67.4614 353.5,68.5 Z"/></g>
<g><path style="opacity:0.769" fill="#e4817d" d="M 376.5,72.5 C 369.631,71.5813 362.964,70.2479 356.5,68.5C 356.435,68.0618 356.601,67.7284 357,67.5C 360.076,68.2883 363.242,68.7883 366.5,69C 370.11,69.7384 373.443,70.9051 376.5,72.5 Z"/></g>
<g><path style="opacity:0.992" fill="#e67e7f" d="M 320.5,70.5 C 318.485,71.9238 316.152,72.5905 313.5,72.5C 315.438,70.8372 317.772,70.1706 320.5,70.5 Z"/></g>
<g><path style="opacity:1" fill="#eb3c3c" d="M 353.5,68.5 C 354.5,68.5 355.5,68.5 356.5,68.5C 362.964,70.2479 369.631,71.5813 376.5,72.5C 376.47,73.4972 376.97,74.1639 378,74.5C 385.059,77.464 392.226,80.1307 399.5,82.5C 401.368,83.2632 403.035,84.2632 404.5,85.5C 406.534,87.9388 408.701,90.2721 411,92.5C 411.383,91.944 411.883,91.6107 412.5,91.5C 414.264,93.956 415.931,96.6226 417.5,99.5C 420.213,100.914 422.88,102.247 425.5,103.5C 426.75,106.006 427.416,108.673 427.5,111.5C 431.068,111.759 432.401,113.759 431.5,117.5C 432.833,117.5 434.167,117.5 435.5,117.5C 435.81,119.144 436.81,120.144 438.5,120.5C 438.725,123.546 440.058,125.879 442.5,127.5C 443.07,133.689 444.903,138.689 448,142.5C 449.855,147.966 451.688,153.299 453.5,158.5C 454.205,161.354 455.205,164.021 456.5,166.5C 456.5,167.5 456.5,168.5 456.5,169.5C 457.374,182.144 457.708,194.811 457.5,207.5C 455.896,211.9 455.229,216.566 455.5,221.5C 455.5,222.167 455.5,222.833 455.5,223.5C 454.262,225.214 453.595,227.214 453.5,229.5C 451.837,231.438 451.171,233.772 451.5,236.5C 451.5,237.5 451.5,238.5 451.5,239.5C 450.504,239.414 449.671,239.748 449,240.5C 448.505,242.473 448.338,244.473 448.5,246.5C 447.265,246.721 446.265,247.388 445.5,248.5C 444.044,252.757 443.044,257.09 442.5,261.5C 438.644,266.535 435.144,271.868 432,277.5C 431.51,278.793 431.343,280.127 431.5,281.5C 431.167,282.167 430.833,282.833 430.5,283.5C 426.932,283.759 425.599,285.759 426.5,289.5C 425.214,292.117 423.547,294.45 421.5,296.5C 420.5,296.833 419.833,297.5 419.5,298.5C 419.5,299.167 419.167,299.5 418.5,299.5C 416.259,300.3 415.259,301.966 415.5,304.5C 415.167,304.5 414.833,304.5 414.5,304.5C 413.417,304.461 412.417,304.127 411.5,303.5C 410.534,305.396 410.201,307.396 410.5,309.5C 410.5,310.167 410.167,310.5 409.5,310.5C 408.094,310.973 407.427,311.973 407.5,313.5C 407.167,314.5 406.5,315.167 405.5,315.5C 404.265,315.279 403.265,314.612 402.5,313.5C 403.043,318.294 400.71,320.627 395.5,320.5C 395.5,322.5 395.5,324.5 395.5,326.5C 394.5,328.167 393.167,329.5 391.5,330.5C 387.069,329.53 384.735,331.197 384.5,335.5C 382.958,336.301 381.292,336.634 379.5,336.5C 379.5,337.5 379.5,338.5 379.5,339.5C 378.5,339.5 377.5,339.5 376.5,339.5C 376.5,340.833 376.5,342.167 376.5,343.5C 375.193,342.847 373.86,342.18 372.5,341.5C 373.091,344.026 372.424,346.36 370.5,348.5C 368.234,348.141 366.401,348.808 365,350.5C 364.667,349.833 364.333,349.167 364,348.5C 363.505,350.473 363.338,352.473 363.5,354.5C 359.069,353.53 356.735,355.197 356.5,359.5C 354.801,359.34 353.134,359.506 351.5,360C 351.957,360.414 352.291,360.914 352.5,361.5C 350.855,362.696 349.189,363.696 347.5,364.5C 346.533,365.806 345.199,366.473 343.5,366.5C 343.519,358.925 342.352,358.925 340,366.5C 339.195,364.099 338.362,364.266 337.5,367C 339.192,368.401 339.859,370.234 339.5,372.5C 336.144,372.157 334.144,373.157 333.5,375.5C 333.167,375 332.833,374.5 332.5,374C 333.5,372.333 334.5,370.667 335.5,369C 335.167,368.5 334.833,368 334.5,367.5C 332.124,369.627 331.124,372.293 331.5,375.5C 328.455,375.492 325.455,375.159 322.5,374.5C 322.48,376.143 323.147,377.476 324.5,378.5C 323.522,379.801 323.855,380.968 325.5,382C 325.333,382.5 325.167,383 325,383.5C 324.29,382.027 323.124,381.36 321.5,381.5C 321.657,382.873 321.49,384.207 321,385.5C 318.871,384.137 318.371,384.471 319.5,386.5C 317.653,387.83 316.153,387.497 315,385.5C 314.5,386 314,386.5 313.5,387C 314.337,388.011 314.67,389.178 314.5,390.5C 311.79,390.119 309.457,389.286 307.5,388C 306.643,388.689 305.977,389.522 305.5,390.5C 311.051,393.07 310.718,394.57 304.5,395C 303.215,396.312 303.215,398.145 304.5,400.5C 303.167,400.5 301.833,400.5 300.5,400.5C 300.5,401.5 300.5,402.5 300.5,403.5C 300.5,404.167 300.167,404.5 299.5,404.5C 297.473,404.338 295.473,404.505 293.5,405C 293.833,405.333 294.167,405.667 294.5,406C 290.106,405.503 287.772,407.336 287.5,411.5C 286.167,411.5 284.833,411.5 283.5,411.5C 283.719,412.675 283.386,413.675 282.5,414.5C 280.414,415.489 278.747,416.822 277.5,418.5C 275.409,418.318 273.409,418.652 271.5,419.5C 270.497,414.517 270.497,409.517 271.5,404.5C 271.566,400.235 272.566,396.235 274.5,392.5C 275.885,391.426 277.051,390.093 278,388.5C 279.978,375.961 282.812,363.628 286.5,351.5C 290.019,345.424 290.353,339.09 287.5,332.5C 286.378,331.37 285.044,330.703 283.5,330.5C 281.068,329.25 278.734,327.75 276.5,326C 270.904,319.897 264.904,314.397 258.5,309.5C 257.43,306.911 256.097,304.411 254.5,302C 254.833,301.5 255.167,301 255.5,300.5C 256.891,301.645 258.224,301.645 259.5,300.5C 258.675,299.614 257.675,299.281 256.5,299.5C 257.015,295.646 258.849,292.646 262,290.5C 262.653,287.861 263.82,285.527 265.5,283.5C 267.882,280.452 270.548,277.785 273.5,275.5C 277.2,272.467 280.533,269.133 283.5,265.5C 287.652,263.411 291.652,261.245 295.5,259C 294.054,256.507 294.721,254.673 297.5,253.5C 301.264,247.637 304.764,241.637 308,235.5C 308.167,233.5 308.333,231.5 308.5,229.5C 308.461,227.048 307.794,225.048 306.5,223.5C 302.337,219.169 298.337,214.669 294.5,210C 278.48,201.649 263.814,191.316 250.5,179C 246.812,178.805 244.478,176.971 243.5,173.5C 243.277,171.658 242.943,169.825 242.5,168C 244.325,164.373 245.325,160.54 245.5,156.5C 248.058,152.855 250.058,148.855 251.5,144.5C 252.251,145.376 252.751,146.376 253,147.5C 253.562,145.134 253.396,142.801 252.5,140.5C 253.464,136.533 255.798,133.866 259.5,132.5C 260.313,131.186 261.313,130.019 262.5,129C 262.167,128.667 261.833,128.333 261.5,128C 262.793,127.51 264.127,127.343 265.5,127.5C 265.104,122.616 263.604,122.282 261,126.5C 260.126,123.997 260.793,121.997 263,120.5C 263.501,116.49 264.001,112.49 264.5,108.5C 264.5,108.167 264.5,107.833 264.5,107.5C 266.419,104.958 268.252,102.291 270,99.5C 270.352,97.7525 270.852,96.0858 271.5,94.5C 272.833,94.5 274.167,94.5 275.5,94.5C 275.529,91.3443 277.196,89.6777 280.5,89.5C 281.298,89.0431 281.631,88.3764 281.5,87.5C 282.5,87.1667 283.167,86.5 283.5,85.5C 283.833,85.5 284.167,85.5 284.5,85.5C 294.372,81.6298 304.038,77.2964 313.5,72.5C 316.152,72.5905 318.485,71.9238 320.5,70.5C 322.167,70.5 323.833,70.5 325.5,70.5C 334.661,69.0098 343.994,68.3431 353.5,68.5 Z"/></g>
<g><path style="opacity:1" fill="#f9dbdb" d="M 265.5,104.5 C 264.89,105.391 264.557,106.391 264.5,107.5C 264.5,107.833 264.5,108.167 264.5,108.5C 260.622,115.279 257.789,122.612 256,130.5C 250.837,138.488 247.337,147.155 245.5,156.5C 243.33,160.984 241.33,165.65 239.5,170.5C 240.852,171.524 242.185,172.524 243.5,173.5C 244.478,176.971 246.812,178.805 250.5,179C 263.814,191.316 278.48,201.649 294.5,210C 298.337,214.669 302.337,219.169 306.5,223.5C 306.666,227.514 306.499,231.514 306,235.5C 301.784,243.709 296.784,251.375 291,258.5C 288.742,260.43 286.242,261.93 283.5,263C 279.8,266.915 276.467,271.081 273.5,275.5C 270.548,277.785 267.882,280.452 265.5,283.5C 264.504,283.414 263.671,283.748 263,284.5C 259.152,290.011 255.319,295.511 251.5,301C 253.684,304.012 256.017,306.845 258.5,309.5C 264.904,314.397 270.904,319.897 276.5,326C 278.734,327.75 281.068,329.25 283.5,330.5C 285.168,332.34 286.668,334.34 288,336.5C 288.558,341.687 288.058,346.687 286.5,351.5C 284.864,354 283.364,356.666 282,359.5C 279.712,370.564 277.212,381.564 274.5,392.5C 272.566,396.235 271.566,400.235 271.5,404.5C 269.816,409.05 268.816,413.884 268.5,419C 268.608,420.681 269.275,421.848 270.5,422.5C 267.082,424.468 263.415,424.468 259.5,422.5C 252.521,419.345 245.855,415.678 239.5,411.5C 238.281,412.263 237.281,413.263 236.5,414.5C 236.431,412.722 236.097,410.889 235.5,409C 208.954,389.797 182.954,369.797 157.5,349C 135.555,330.724 116.055,310.224 99,287.5C 71.8908,248.13 62.5575,204.797 71,157.5C 80.6848,119.164 103.185,91.3302 138.5,74C 185.313,58.2141 226.98,66.7141 263.5,99.5C 264.17,101.291 264.837,102.958 265.5,104.5 Z"/></g>
<g><path style="opacity:0.004" fill="#fefffe" d="M 414.5,74.5 C 415.833,75.1667 415.833,75.1667 414.5,74.5 Z"/></g>
<g><path style="opacity:0.996" fill="#e77777" d="M 376.5,72.5 C 384.854,74.5163 392.52,77.8496 399.5,82.5C 392.226,80.1307 385.059,77.464 378,74.5C 376.97,74.1639 376.47,73.4972 376.5,72.5 Z"/></g>
<g><path style="opacity:1" fill="#e46867" d="M 313.5,72.5 C 304.038,77.2964 294.372,81.6298 284.5,85.5C 293.235,79.3033 302.902,74.9699 313.5,72.5 Z"/></g>
<g><path style="opacity:0.004" fill="#fefffe" d="M 76.5,82.5 C 77.8333,83.1667 77.8333,83.1667 76.5,82.5 Z"/></g>
<g><path style="opacity:0.004" fill="#fefffe" d="M 88.5,82.5 C 89.8333,83.1667 89.8333,83.1667 88.5,82.5 Z"/></g>
<g><path style="opacity:0.757" fill="#f2a9ac" d="M 283.5,85.5 C 283.167,86.5 282.5,87.1667 281.5,87.5C 281.167,87.5 280.833,87.5 280.5,87.5C 280.973,86.0937 281.973,85.427 283.5,85.5 Z"/></g>
<g><path style="opacity:1" fill="#ec928e" d="M 404.5,85.5 C 407.533,87.016 410.2,89.016 412.5,91.5C 411.883,91.6107 411.383,91.944 411,92.5C 408.701,90.2721 406.534,87.9388 404.5,85.5 Z"/></g>
<g><path style="opacity:1" fill="#e56661" d="M 280.5,87.5 C 280.833,87.5 281.167,87.5 281.5,87.5C 281.631,88.3764 281.298,89.0431 280.5,89.5C 277.196,89.6777 275.529,91.3443 275.5,94.5C 274.167,94.5 272.833,94.5 271.5,94.5C 273.572,91.1074 276.572,88.7741 280.5,87.5 Z"/></g>
<g><path style="opacity:0.663" fill="#e89591" d="M 418.5,96.5 C 419.833,97.1667 420.833,98.1667 421.5,99.5C 419.5,99.5 418.5,98.5 418.5,96.5 Z"/></g>
<g><path style="opacity:1" fill="#e25e58" d="M 412.5,91.5 C 414.95,92.7114 416.95,94.378 418.5,96.5C 418.5,98.5 419.5,99.5 421.5,99.5C 423.167,100.5 424.5,101.833 425.5,103.5C 422.88,102.247 420.213,100.914 417.5,99.5C 415.931,96.6226 414.264,93.956 412.5,91.5 Z"/></g>
<g><path style="opacity:0.004" fill="#fefffe" d="M 20.5,99.5 C 21.8333,100.167 21.8333,100.167 20.5,99.5 Z"/></g>
<g><path style="opacity:1" fill="#e26b69" d="M 271.5,94.5 C 270.852,96.0858 270.352,97.7525 270,99.5C 268.252,102.291 266.419,104.958 264.5,107.5C 264.557,106.391 264.89,105.391 265.5,104.5C 266.224,100.237 268.224,96.9035 271.5,94.5 Z"/></g>
<g><path style="opacity:0.004" fill="#fefffe" d="M 46.5,108.5 C 47.8333,109.167 47.8333,109.167 46.5,108.5 Z"/></g>
<g><path style="opacity:0.004" fill="#fefffe" d="M 53.5,115.5 C 54.8333,116.167 54.8333,116.167 53.5,115.5 Z"/></g>
<g><path style="opacity:1" fill="#e45955" d="M 425.5,103.5 C 428.833,107.5 432.167,111.5 435.5,115.5C 435.5,116.167 435.5,116.833 435.5,117.5C 434.167,117.5 432.833,117.5 431.5,117.5C 432.401,113.759 431.068,111.759 427.5,111.5C 427.416,108.673 426.75,106.006 425.5,103.5 Z"/></g>
<g><path style="opacity:0.996" fill="#ec8a86" d="M 435.5,115.5 C 436.89,116.899 437.89,118.566 438.5,120.5C 436.81,120.144 435.81,119.144 435.5,117.5C 435.5,116.833 435.5,116.167 435.5,115.5 Z"/></g>
<g><path style="opacity:0.98" fill="#ee9493" d="M 438.5,120.5 C 440.199,122.566 441.532,124.9 442.5,127.5C 440.058,125.879 438.725,123.546 438.5,120.5 Z"/></g>
<g><path style="opacity:1" fill="#e54343" d="M 264.5,108.5 C 264.001,112.49 263.501,116.49 263,120.5C 260.793,121.997 260.126,123.997 261,126.5C 263.604,122.282 265.104,122.616 265.5,127.5C 264.127,127.343 262.793,127.51 261.5,128C 261.833,128.333 262.167,128.667 262.5,129C 261.313,130.019 260.313,131.186 259.5,132.5C 255.798,133.866 253.464,136.533 252.5,140.5C 253.396,142.801 253.562,145.134 253,147.5C 252.751,146.376 252.251,145.376 251.5,144.5C 250.058,148.855 248.058,152.855 245.5,156.5C 247.337,147.155 250.837,138.488 256,130.5C 257.789,122.612 260.622,115.279 264.5,108.5 Z"/></g>
<g><path style="opacity:1" fill="#e36766" d="M 442.5,127.5 C 447.482,135.82 451.149,144.82 453.5,154.5C 453.5,155.833 453.5,157.167 453.5,158.5C 451.688,153.299 449.855,147.966 448,142.5C 444.903,138.689 443.07,133.689 442.5,127.5 Z"/></g>
<g><path style="opacity:0.004" fill="#fefffe" d="M 0.5,143.5 C 1.83333,144.167 1.83333,144.167 0.5,143.5 Z"/></g>
<g><path style="opacity:0.953" fill="#f2a09d" d="M 453.5,154.5 C 455.245,158.2 456.245,162.2 456.5,166.5C 455.205,164.021 454.205,161.354 453.5,158.5C 453.5,157.167 453.5,155.833 453.5,154.5 Z"/></g>
<g><path style="opacity:1" fill="#da4d4c" d="M 245.5,156.5 C 245.325,160.54 244.325,164.373 242.5,168C 242.943,169.825 243.277,171.658 243.5,173.5C 242.185,172.524 240.852,171.524 239.5,170.5C 241.33,165.65 243.33,160.984 245.5,156.5 Z"/></g>
<g><path style="opacity:0.141" fill="#f4b6b3" d="M 456.5,169.5 C 457.302,170.952 457.802,172.618 458,174.5C 458.826,185.674 458.659,196.674 457.5,207.5C 457.708,194.811 457.374,182.144 456.5,169.5 Z"/></g>
<g><path style="opacity:0.004" fill="#fefffe" d="M 459.5,192.5 C 460.833,193.167 460.833,193.167 459.5,192.5 Z"/></g>
<g><path style="opacity:0.004" fill="#fefffe" d="M 3.5,199.5 C 4.83333,200.167 4.83333,200.167 3.5,199.5 Z"/></g>
<g><path style="opacity:0.004" fill="#fefffe" d="M 44.5,199.5 C 45.8333,200.167 45.8333,200.167 44.5,199.5 Z"/></g>
<g><path style="opacity:0.004" fill="#fefffe" d="M 33.5,209.5 C 34.8333,210.167 34.8333,210.167 33.5,209.5 Z"/></g>
<g><path style="opacity:0.886" fill="#e58f8c" d="M 457.5,207.5 C 457.31,212.37 456.644,217.036 455.5,221.5C 455.229,216.566 455.896,211.9 457.5,207.5 Z"/></g>
<g><path style="opacity:0.012" fill="#fed8d7" d="M 455.5,223.5 C 455.741,225.898 455.074,227.898 453.5,229.5C 453.595,227.214 454.262,225.214 455.5,223.5 Z"/></g>
<g><path style="opacity:1" fill="#dd4f4e" d="M 306.5,223.5 C 307.794,225.048 308.461,227.048 308.5,229.5C 308.333,231.5 308.167,233.5 308,235.5C 304.764,241.637 301.264,247.637 297.5,253.5C 294.721,254.673 294.054,256.507 295.5,259C 291.652,261.245 287.652,263.411 283.5,265.5C 280.533,269.133 277.2,272.467 273.5,275.5C 276.467,271.081 279.8,266.915 283.5,263C 286.242,261.93 288.742,260.43 291,258.5C 296.784,251.375 301.784,243.709 306,235.5C 306.499,231.514 306.666,227.514 306.5,223.5 Z"/></g>
<g><path style="opacity:0.973" fill="#e28180" d="M 453.5,229.5 C 453.829,232.228 453.163,234.562 451.5,236.5C 451.171,233.772 451.837,231.438 453.5,229.5 Z"/></g>
<g><path style="opacity:0.957" fill="#e97d7a" d="M 451.5,239.5 C 450.344,241.824 449.344,244.157 448.5,246.5C 448.338,244.473 448.505,242.473 449,240.5C 449.671,239.748 450.504,239.414 451.5,239.5 Z"/></g>
<g><path style="opacity:1" fill="#e56865" d="M 448.5,246.5 C 446.944,251.773 444.944,256.773 442.5,261.5C 443.044,257.09 444.044,252.757 445.5,248.5C 446.265,247.388 447.265,246.721 448.5,246.5 Z"/></g>
<g><path style="opacity:0.004" fill="#fefffe" d="M 70.5,259.5 C 71.8333,260.167 71.8333,260.167 70.5,259.5 Z"/></g>
<g><path style="opacity:0.106" fill="#f2f2f2" d="M 55.5,261.5 C 56.0768,260.227 56.7435,260.227 57.5,261.5C 58.3256,262.451 58.4922,263.451 58,264.5C 57.1482,263.429 56.3149,262.429 55.5,261.5 Z"/></g>
<g><path style="opacity:1" fill="#e77e7b" d="M 442.5,261.5 C 439.859,268.785 436.193,275.452 431.5,281.5C 431.343,280.127 431.51,278.793 432,277.5C 435.144,271.868 438.644,266.535 442.5,261.5 Z"/></g>
<g><path style="opacity:1" fill="#e57678" d="M 430.5,283.5 C 429.525,285.795 428.192,287.795 426.5,289.5C 425.599,285.759 426.932,283.759 430.5,283.5 Z"/></g>
<g><path style="opacity:0.004" fill="#fefffe" d="M 465.5,284.5 C 466.833,285.167 466.833,285.167 465.5,284.5 Z"/></g>
<g><path style="opacity:0.004" fill="#fefffe" d="M 499.5,286.5 C 499.5,286.833 499.5,287.167 499.5,287.5C 498.83,287.019 498.83,286.685 499.5,286.5 Z"/></g>
<g><path style="opacity:0.004" fill="#fefffe" d="M 446.5,288.5 C 447.833,289.167 447.833,289.167 446.5,288.5 Z"/></g>
<g><path style="opacity:1" fill="#e34949" d="M 265.5,283.5 C 263.82,285.527 262.653,287.861 262,290.5C 258.849,292.646 257.015,295.646 256.5,299.5C 257.675,299.281 258.675,299.614 259.5,300.5C 258.224,301.645 256.891,301.645 255.5,300.5C 255.167,301 254.833,301.5 254.5,302C 256.097,304.411 257.43,306.911 258.5,309.5C 256.017,306.845 253.684,304.012 251.5,301C 255.319,295.511 259.152,290.011 263,284.5C 263.671,283.748 264.504,283.414 265.5,283.5 Z"/></g>
<g><path style="opacity:0.027" fill="#fcd9d6" d="M 421.5,296.5 C 421.5,297.833 420.833,298.5 419.5,298.5C 419.833,297.5 420.5,296.833 421.5,296.5 Z"/></g>
<g><path style="opacity:0.545" fill="#e58e89" d="M 418.5,299.5 C 417.89,301.434 416.89,303.101 415.5,304.5C 415.259,301.966 416.259,300.3 418.5,299.5 Z"/></g>
<g><path style="opacity:1" fill="#ea635f" d="M 414.5,304.5 C 413.92,306.749 412.587,308.415 410.5,309.5C 410.201,307.396 410.534,305.396 411.5,303.5C 412.417,304.127 413.417,304.461 414.5,304.5 Z"/></g>
<g><path style="opacity:0.165" fill="#f5adac" d="M 409.5,310.5 C 409.573,312.027 408.906,313.027 407.5,313.5C 407.427,311.973 408.094,310.973 409.5,310.5 Z"/></g>
<g><path style="opacity:0.004" fill="#fefffe" d="M 50.5,318.5 C 51.8333,319.167 51.8333,319.167 50.5,318.5 Z"/></g>
<g><path style="opacity:1" fill="#ec7872" d="M 405.5,315.5 C 402.167,319.167 398.833,322.833 395.5,326.5C 395.5,324.5 395.5,322.5 395.5,320.5C 400.71,320.627 403.043,318.294 402.5,313.5C 403.265,314.612 404.265,315.279 405.5,315.5 Z"/></g>
<g><path style="opacity:0.004" fill="#fefffe" d="M 430.5,320.5 C 431.833,321.167 431.833,321.167 430.5,320.5 Z"/></g>
<g><path style="opacity:0.004" fill="#fefffe" d="M 438.5,320.5 C 439.833,321.167 439.833,321.167 438.5,320.5 Z"/></g>
<g><path style="opacity:0.075" fill="#fbfbfb" d="M 109.5,331.5 C 105.933,329.443 102.766,326.777 100,323.5C 99.3333,322.5 99.3333,321.5 100,320.5C 103.773,323.764 106.94,327.43 109.5,331.5 Z"/></g>
<g><path style="opacity:1" fill="#e76c66" d="M 391.5,330.5 C 389.45,332.547 387.117,334.214 384.5,335.5C 384.735,331.197 387.069,329.53 391.5,330.5 Z"/></g>
<g><path style="opacity:0.148" fill="#f0eeef" d="M 109.5,331.5 C 110.922,331.709 112.255,332.209 113.5,333C 130.164,348.838 147.831,363.505 166.5,377C 167.252,377.671 167.586,378.504 167.5,379.5C 147.052,364.929 127.718,348.929 109.5,331.5 Z"/></g>
<g><path style="opacity:1" fill="#d24848" d="M 283.5,330.5 C 285.044,330.703 286.378,331.37 287.5,332.5C 290.353,339.09 290.019,345.424 286.5,351.5C 288.058,346.687 288.558,341.687 288,336.5C 286.668,334.34 285.168,332.34 283.5,330.5 Z"/></g>
<g><path style="opacity:1" fill="#e96867" d="M 384.5,335.5 C 382.34,338.599 379.673,341.265 376.5,343.5C 376.5,342.167 376.5,340.833 376.5,339.5C 377.5,339.5 378.5,339.5 379.5,339.5C 379.5,338.5 379.5,337.5 379.5,336.5C 381.292,336.634 382.958,336.301 384.5,335.5 Z"/></g>
<g><path style="opacity:0.004" fill="#fefffe" d="M 396.5,340.5 C 397.833,341.167 397.833,341.167 396.5,340.5 Z"/></g>
<g><path style="opacity:1" fill="#ef7a72" d="M 376.5,343.5 C 375.089,345.914 373.089,347.581 370.5,348.5C 372.424,346.36 373.091,344.026 372.5,341.5C 373.86,342.18 375.193,342.847 376.5,343.5 Z"/></g>
<g><path style="opacity:0.004" fill="#fefffe" d="M 479.5,345.5 C 480.833,346.167 480.833,346.167 479.5,345.5 Z"/></g>
<g><path style="opacity:1" fill="#ec6964" d="M 370.5,348.5 C 368.393,350.727 366.06,352.727 363.5,354.5C 363.338,352.473 363.505,350.473 364,348.5C 364.333,349.167 364.667,349.833 365,350.5C 366.401,348.808 368.234,348.141 370.5,348.5 Z"/></g>
<g><path style="opacity:0.004" fill="#fefffe" d="M 460.5,349.5 C 461.833,350.167 461.833,350.167 460.5,349.5 Z"/></g>
<g><path style="opacity:1" fill="#e9726e" d="M 363.5,354.5 C 358.573,359.302 353.24,363.635 347.5,367.5C 347.5,366.5 347.5,365.5 347.5,364.5C 349.189,363.696 350.855,362.696 352.5,361.5C 352.291,360.914 351.957,360.414 351.5,360C 353.134,359.506 354.801,359.34 356.5,359.5C 356.735,355.197 359.069,353.53 363.5,354.5 Z"/></g>
<g><path style="opacity:0.004" fill="#fefffe" d="M 396.5,369.5 C 397.833,370.167 397.833,370.167 396.5,369.5 Z"/></g>
<g><path style="opacity:0.004" fill="#fefffe" d="M 107.5,370.5 C 108.833,371.167 108.833,371.167 107.5,370.5 Z"/></g>
<g><path style="opacity:1" fill="#ea4f4a" d="M 347.5,364.5 C 347.5,365.5 347.5,366.5 347.5,367.5C 343.807,370.853 339.807,373.853 335.5,376.5C 334.5,376.5 333.5,376.5 332.5,376.5C 332.5,377.5 332.5,378.5 332.5,379.5C 327.871,382.821 323.204,386.154 318.5,389.5C 317.791,388.596 316.791,388.263 315.5,388.5C 314.167,390.833 312.833,393.167 311.5,395.5C 309.973,395.427 308.973,396.094 308.5,397.5C 307.564,398.974 306.23,399.974 304.5,400.5C 303.215,398.145 303.215,396.312 304.5,395C 310.718,394.57 311.051,393.07 305.5,390.5C 305.977,389.522 306.643,388.689 307.5,388C 309.457,389.286 311.79,390.119 314.5,390.5C 314.67,389.178 314.337,388.011 313.5,387C 314,386.5 314.5,386 315,385.5C 316.153,387.497 317.653,387.83 319.5,386.5C 318.371,384.471 318.871,384.137 321,385.5C 321.49,384.207 321.657,382.873 321.5,381.5C 323.124,381.36 324.29,382.027 325,383.5C 325.167,383 325.333,382.5 325.5,382C 323.855,380.968 323.522,379.801 324.5,378.5C 323.147,377.476 322.48,376.143 322.5,374.5C 325.455,375.159 328.455,375.492 331.5,375.5C 331.124,372.293 332.124,369.627 334.5,367.5C 334.833,368 335.167,368.5 335.5,369C 334.5,370.667 333.5,372.333 332.5,374C 332.833,374.5 333.167,375 333.5,375.5C 334.144,373.157 336.144,372.157 339.5,372.5C 339.859,370.234 339.192,368.401 337.5,367C 338.362,364.266 339.195,364.099 340,366.5C 342.352,358.925 343.519,358.925 343.5,366.5C 345.199,366.473 346.533,365.806 347.5,364.5 Z"/></g>
<g><path style="opacity:0.957" fill="#ef9190" d="M 335.5,376.5 C 334.833,377.833 333.833,378.833 332.5,379.5C 332.5,378.5 332.5,377.5 332.5,376.5C 333.5,376.5 334.5,376.5 335.5,376.5 Z"/></g>
<g><path style="opacity:0.188" fill="#efeaed" d="M 167.5,379.5 C 169.027,379.427 170.027,380.094 170.5,381.5C 168.973,381.573 167.973,380.906 167.5,379.5 Z"/></g>
<g><path style="opacity:1" fill="#df5455" d="M 286.5,351.5 C 282.812,363.628 279.978,375.961 278,388.5C 277.051,390.093 275.885,391.426 274.5,392.5C 277.212,381.564 279.712,370.564 282,359.5C 283.364,356.666 284.864,354 286.5,351.5 Z"/></g>
<g><path style="opacity:0.004" fill="#fefffe" d="M 419.5,386.5 C 420.833,387.167 420.833,387.167 419.5,386.5 Z"/></g>
<g><path style="opacity:0.004" fill="#fefffe" d="M 411.5,391.5 C 412.833,392.167 412.833,392.167 411.5,391.5 Z"/></g>
<g><path style="opacity:0.004" fill="#fefffe" d="M 482.5,391.5 C 483.833,392.167 483.833,392.167 482.5,391.5 Z"/></g>
<g><path style="opacity:0.004" fill="#fefffe" d="M 499.5,391.5 C 499.5,391.833 499.5,392.167 499.5,392.5C 498.83,392.019 498.83,391.685 499.5,391.5 Z"/></g>
<g><path style="opacity:0.122" fill="#f2f0f1" d="M 170.5,381.5 C 185.464,392.117 200.464,402.783 215.5,413.5C 216.298,413.957 216.631,414.624 216.5,415.5C 210.727,413.112 205.393,409.945 200.5,406C 190.246,398.054 180.246,389.887 170.5,381.5 Z"/></g>
<g><path style="opacity:0.937" fill="#e27d7c" d="M 318.5,389.5 C 316.766,392.2 314.432,394.2 311.5,395.5C 312.833,393.167 314.167,390.833 315.5,388.5C 316.791,388.263 317.791,388.596 318.5,389.5 Z"/></g>
<g><path style="opacity:0.004" fill="#fefffe" d="M 128.5,395.5 C 129.833,396.167 129.833,396.167 128.5,395.5 Z"/></g>
<g><path style="opacity:0.008" fill="#fdd7d5" d="M 311.5,395.5 C 311.027,396.906 310.027,397.573 308.5,397.5C 308.973,396.094 309.973,395.427 311.5,395.5 Z"/></g>
<g><path style="opacity:0.984" fill="#e8807b" d="M 304.5,400.5 C 303.738,402.262 302.404,403.262 300.5,403.5C 300.5,402.5 300.5,401.5 300.5,400.5C 301.833,400.5 303.167,400.5 304.5,400.5 Z"/></g>
<g><path style="opacity:0.004" fill="#fefffe" d="M 317.5,407.5 C 318.833,408.167 318.833,408.167 317.5,407.5 Z"/></g>
<g><path style="opacity:1" fill="#e56662" d="M 299.5,404.5 C 292.975,410.343 285.641,415.01 277.5,418.5C 278.747,416.822 280.414,415.489 282.5,414.5C 283.386,413.675 283.719,412.675 283.5,411.5C 284.833,411.5 286.167,411.5 287.5,411.5C 287.772,407.336 290.106,405.503 294.5,406C 294.167,405.667 293.833,405.333 293.5,405C 295.473,404.505 297.473,404.338 299.5,404.5 Z"/></g>
<g><path style="opacity:0.096" fill="#ececec" d="M 235.5,415.5 C 236.782,416.708 236.782,418.042 235.5,419.5C 234.708,418.3 234.708,416.967 235.5,415.5 Z"/></g>
<g><path style="opacity:1" fill="#e16461" d="M 271.5,404.5 C 270.497,409.517 270.497,414.517 271.5,419.5C 273.409,418.652 275.409,418.318 277.5,418.5C 275.65,420.572 273.317,421.905 270.5,422.5C 269.275,421.848 268.608,420.681 268.5,419C 268.816,413.884 269.816,409.05 271.5,404.5 Z"/></g>
<g><path style="opacity:0.075" fill="#f2f1f2" d="M 216.5,415.5 C 222.293,418.398 228.293,420.731 234.5,422.5C 236.054,423.895 235.721,424.561 233.5,424.5C 227.086,422.715 221.419,419.715 216.5,415.5 Z"/></g>
<g><path style="opacity:0.082" fill="#e2e2e2" d="M 234.5,422.5 C 234.369,421.761 234.536,421.094 235,420.5C 235.692,421.437 235.525,422.103 234.5,422.5 Z"/></g>
<g><path style="opacity:0.004" fill="#fefffe" d="M 416.5,427.5 C 417.833,428.167 417.833,428.167 416.5,427.5 Z"/></g>
<g><path style="opacity:0.004" fill="#fefffe" d="M 448.5,435.5 C 449.833,436.167 449.833,436.167 448.5,435.5 Z"/></g>
<g><path style="opacity:0.004" fill="#fefffe" d="M 2.5,436.5 C 3.83333,437.167 3.83333,437.167 2.5,436.5 Z"/></g>
<g><path style="opacity:0.004" fill="#fefffe" d="M 176.5,436.5 C 177.833,437.167 177.833,437.167 176.5,436.5 Z"/></g>
<g><path style="opacity:0.004" fill="#fefffe" d="M 359.5,438.5 C 360.833,439.167 360.833,439.167 359.5,438.5 Z"/></g>
<g><path style="opacity:0.004" fill="#fefffe" d="M 280.5,445.5 C 281.833,446.167 281.833,446.167 280.5,445.5 Z"/></g>
<g><path style="opacity:0.004" fill="#fefffe" d="M 97.5,455.5 C 98.8333,456.167 98.8333,456.167 97.5,455.5 Z"/></g>
<g><path style="opacity:0.004" fill="#fefffe" d="M 383.5,461.5 C 384.833,462.167 384.833,462.167 383.5,461.5 Z"/></g>
<g><path style="opacity:0.004" fill="#fefffe" d="M 81.5,467.5 C 82.8333,468.167 82.8333,468.167 81.5,467.5 Z"/></g>
<g><path style="opacity:0.004" fill="#fefffe" d="M 109.5,479.5 C 110.833,480.167 110.833,480.167 109.5,479.5 Z"/></g>
<g><path style="opacity:0.004" fill="#fefffe" d="M 191.5,480.5 C 192.833,481.167 192.833,481.167 191.5,480.5 Z"/></g>
<g><path style="opacity:0.004" fill="#fefffe" d="M 48.5,497.5 C 49.8333,498.167 49.8333,498.167 48.5,497.5 Z"/></g>
</svg>
